<?xml version="1.0" encoding="UTF-8" standalone="no"?>
<!-- Created with Inkscape (http://www.inkscape.org/) -->

<svg
   version="1.1"
   id="svg1"
   width="1536"
   height="1024"
   viewBox="0 0 1536 1024"
   sodipodi:docname="SVEND_LOGO_WHITE.svg"
   inkscape:version="1.4.2 (f4327f4, 2025-05-13)"
   inkscape:export-filename="SVEND_LOGO.png"
   inkscape:export-xdpi="96"
   inkscape:export-ydpi="96"
   xmlns:inkscape="http://www.inkscape.org/namespaces/inkscape"
   xmlns:sodipodi="http://sodipodi.sourceforge.net/DTD/sodipodi-0.dtd"
   xmlns="http://www.w3.org/2000/svg"
   xmlns:svg="http://www.w3.org/2000/svg">
  <defs
     id="defs1" />
  <sodipodi:namedview
     id="namedview1"
     pagecolor="#ffffff"
     bordercolor="#000000"
     borderopacity="0.25"
     inkscape:showpageshadow="2"
     inkscape:pageopacity="0.0"
     inkscape:pagecheckerboard="0"
     inkscape:deskcolor="#d1d1d1"
     inkscape:zoom="0.86425781"
     inkscape:cx="768.28927"
     inkscape:cy="512"
     inkscape:window-width="1920"
     inkscape:window-height="1129"
     inkscape:window-x="-8"
     inkscape:window-y="-8"
     inkscape:window-maximized="1"
     inkscape:current-layer="g1" />
  <g
     inkscape:groupmode="layer"
     inkscape:label="Image"
     id="g1">
    <path
       id="path1"
       style="fill:#ffffff;fill-opacity:1;stroke-width:0;stroke-dasharray:none"
       d="m 810.34961,183.98438 c -8.00929,0.28308 -15.5701,3.48413 -22.48495,7.32376 -12.87788,7.1817 -24.40922,16.65459 -37.84868,22.84732 -4.31757,2.08674 -9.12821,2.91574 -13.3771,5.16756 -7.15857,3.4834 -13.4768,8.9205 -17.4074,15.89893 -4.63628,8.03202 -6.3024,17.46727 -6.06699,26.65644 0.0985,4.79617 0.75632,9.56171 1.64764,14.269 0.0476,1.43947 -0.58472,2.80552 -0.6551,4.24336 -0.75319,5.38879 0.11601,11.14811 3.19493,15.71841 3.74987,5.93489 9.53028,10.16542 15.27939,14.00871 10.15322,6.72796 21.26277,12.12274 30.43779,20.24424 0.72261,0.57357 1.06428,1.45781 1.01481,2.36706 0.25419,10.62114 0.26429,21.24817 0.15168,31.87217 -0.10997,9.76491 -0.23395,19.53062 -0.32352,29.29514 -0.2559,2.18138 -2.48681,3.93272 -4.67536,3.50098 -1.73761,-0.32579 -2.97662,-1.73361 -4.40792,-2.66331 -35.6616,-26.03244 -71.15984,-52.30412 -107.51397,-77.36576 -1.79592,-1.18526 -3.52006,-2.4953 -5.36053,-3.6031 -2.38777,-1.13215 -5.02429,-1.65761 -7.63204,-1.97563 -6.86268,-0.69881 -13.69347,1.24508 -19.88444,4.07709 -9.03352,4.05728 -17.18145,9.7518 -25.58752,14.92132 -3.36838,2.10086 -6.87005,4.24739 -10.41869,6.1631 -0.99569,0.52942 -2.22,1.17581 -3.31848,1.71944 -4.07079,2.03607 -8.31873,3.71411 -12.69879,4.95454 -4.02638,1.19323 -7.8786,3.2257 -10.74869,6.34031 -2.96251,3.09048 -4.72915,7.11427 -5.71781,11.23537 -1.55545,6.40335 -1.57897,13.05115 -1.41863,19.6009 0.26795,9.17433 1.23843,18.2732 1.00241,27.46227 0.0207,3.42545 -1.03941,6.75735 -0.90681,10.1895 0.001,5.08446 1.56132,10.25252 4.8747,14.1707 4.43736,5.53069 10.76398,9.06598 17.04291,12.11545 11.82295,5.71965 24.58514,9.32817 36.12161,15.66465 2.63761,1.56679 5.14743,3.4485 8.1405,4.29671 4.09389,1.33597 8.5369,1.2958 12.69456,0.26955 7.31277,-1.64267 13.9237,-5.32376 20.51953,-8.74387 4.35604,-2.28907 8.66919,-4.70056 13.22314,-6.57805 2.19027,-0.44436 4.29633,0.48096 6.39883,0.88652 1.12616,0.30405 2.24944,0.63792 3.42471,1.02929 9.89759,3.32419 18.80495,8.95253 27.35797,14.83159 9.60214,6.67635 18.83584,13.8873 28.67442,20.21701 1.81523,1.44232 2.01025,4.45281 0.29511,6.05269 -1.18127,1.12727 -2.69962,1.81802 -4.02559,2.7576 -20.09966,13.11068 -40.67378,25.47586 -60.8399,38.48291 -9.96369,-3.64417 -18.76816,-9.70519 -28.31054,-14.23828 -5.34352,-2.47216 -11.27535,-4.34129 -17.22237,-3.5115 -2.23037,0.31113 -4.43888,1.00335 -6.29472,2.30511 -9.41413,5.6132 -20.00552,8.69886 -30.20947,12.5061 -7.8109,2.84323 -15.72475,5.92179 -22.32775,11.09558 -4.14348,3.33658 -7.40401,8.02695 -8.19394,13.36751 -0.75011,4.4178 0.0808,8.89125 -0.11393,13.33558 -0.0446,2.47431 -0.1663,4.78571 -0.33618,7.26123 -0.7016,9.88267 -2.18914,19.87652 -1.92566,29.86437 0.15833,5.61102 0.98818,11.38546 3.72433,16.36565 2.44787,4.28244 6.64099,7.37128 11.27534,8.93309 2.96165,1.01936 5.95313,1.9621 8.82273,3.22974 16.61941,6.96981 31.54004,17.40843 48.2906,24.09353 8.35504,3.30306 17.3626,5.41067 26.39188,4.73995 1.59654,-0.65955 2.95687,-1.7592 4.46121,-2.59492 34.97252,-21.48909 67.36925,-46.77662 100.70996,-70.64113 2.40223,-1.72533 4.80662,-3.4479 7.20969,-5.17216 3.12283,0.94464 6.45003,2.34189 8.1566,5.30326 2.63181,4.23393 2.95848,9.37168 3.10974,14.22553 0.0833,3.31727 0.004,6.60823 -0.11791,9.87356 -0.21995,6.79385 -0.7923,13.61211 -0.125,20.39843 0.20259,2.16638 0.20474,4.521 -0.33146,6.70372 -1.0519,4.92922 -3.98913,9.33555 -7.88721,12.48684 -4.60501,3.92369 -10.18337,6.53657 -15.54322,9.09565 -5.27007,2.60362 -10.87123,4.82949 -15.34311,8.75008 -3.14872,2.8351 -5.29862,6.60832 -6.92578,10.47774 -3.38575,8.39922 -4.00047,17.60263 -3.79623,26.56693 0.33468,12.34083 2.50879,24.53129 4.78404,36.63584 23.29475,15.98048 48.86901,28.22319 74.1637,40.59903 3.68993,1.78904 7.35713,3.65372 11.08044,5.36581 1.3382,0.36422 2.72081,0.68421 4.08264,0.85588 14.97883,-4.04776 28.84434,-11.24143 42.34205,-18.73961 11.53711,-6.35617 22.86975,-13.13079 34.83628,-18.66637 4.22894,-1.55707 8.44379,-3.61358 11.45999,-7.06209 4.09602,-4.4785 5.93166,-10.51995 6.66278,-16.43202 0.92354,-7.35214 0.49188,-14.78778 -0.0139,-22.15442 -0.67411,-9.31054 -1.67798,-18.63084 -1.29362,-27.9791 -5.24479,-6.86889 -12.45843,-11.86973 -19.80582,-16.25267 -5.70939,-3.42205 -11.57773,-6.5755 -17.2495,-9.97521 -3.48793,-2.1042 -6.91214,-4.29698 -10.24384,-6.71085 -0.72961,-0.25274 -0.3909,-1.04781 -0.45847,-1.63664 0.10339,-17.34117 -0.25832,-34.68823 0.31622,-52.02424 0.0871,-2.86433 0.24803,-5.86427 0.35547,-8.77734 0.24524,-1.51291 0.97602,-2.92863 1.82743,-4.17922 1.01119,-0.96492 2.69388,-0.72675 3.64269,0.20957 13.7572,9.30561 27.45185,18.70282 41.06504,28.21769 14.32134,10.01422 28.62533,20.04233 42.89178,30.13048 9.85111,7.13736 19.42479,14.89572 30.55621,19.99718 6.32797,2.8654 13.46903,4.59642 20.40357,3.28445 5.01892,-0.91491 9.51952,-3.53842 13.56592,-6.54339 4.1904,-2.64327 8.6938,-4.74592 13.1878,-6.81289 12.49,-5.62316 25.6326,-9.85522 37.5685,-16.66375 6.6826,-3.86072 12.9614,-8.79041 17.159,-15.36138 0.077,-0.98215 -0.1432,-2.04092 -0.1765,-3.05218 -1.0891,-15.56938 0.8661,-31.18693 -0.42,-46.74805 -0.6817,-7.73457 -2.3041,-15.61186 -6.4028,-22.31119 -0.698,-1.07942 -1.3987,-2.21543 -2.2632,-3.14351 -6.5959,-2.34922 -12.9212,-5.37852 -19.1484,-8.56287 -8.7431,-4.45721 -17.485,-9.32684 -26.689,-12.95173 -7.9225,-3.0727 -16.4727,-5.18735 -25.01999,-4.27874 -0.69625,0.0946 -1.45907,0.031 -1.9507,0.62492 -1.86973,1.50356 -4.00206,2.99524 -5.93993,4.18562 -3.11255,1.91641 -6.61385,3.63178 -10.16309,4.85819 -5.17482,1.81524 -10.69246,2.62925 -16.17089,2.39377 -0.76721,-0.0353 -1.83478,-0.10813 -2.71485,-0.19727 -8.76802,-0.87792 -17.09685,-4.23876 -24.66465,-8.63987 -6.70946,-3.87704 -12.94638,-8.62728 -18.84121,-13.55739 -5.3555,-2.04179 -10.86973,-4.46433 -14.67498,-8.91892 -2.71108,-3.28176 -3.6238,-8.13451 -1.72969,-12.03365 1.92136,-4.4162 5.87455,-7.47217 9.75916,-10.09482 7.41881,-4.95593 15.60058,-8.5845 23.40489,-12.86517 3.87755,-2.08906 7.78444,-4.23221 11.15815,-7.08878 2.01088,-1.89507 3.89167,-4.04315 6.46834,-5.18776 3.79471,-1.90744 8.31932,-2.18549 12.35001,-0.87941 6.3308,1.82617 11.47084,6.14955 17.28242,9.06683 1.89042,0.93426 3.95479,1.46325 5.78158,2.52681 6.71632,3.31352 14.54253,4.15556 21.85253,2.61957 9.4786,-1.84944 18.1485,-6.35056 26.5334,-10.96985 11.3346,-6.30144 22.2737,-13.46349 34.3962,-18.21392 4.2955,-10.61758 5.7235,-22.14012 6.0312,-33.51651 0.3858,-15.15412 -1.1682,-30.25794 -2.2616,-45.35263 -12.3858,-9.88221 -26.6329,-16.99787 -40.689,-24.14553 -9.5,-4.83571 -19.0575,-9.61979 -28.0582,-15.35042 -6.12007,-4.66644 -14.05816,-6.41988 -21.64672,-5.96219 -1.19198,-0.0473 -2.37843,0.32604 -3.2616,1.13778 -38.22332,26.10576 -75.04874,54.16648 -112.57695,81.24614 -2.71304,0.6413 -5.49842,-0.66111 -7.54085,-2.3846 -2.98399,-2.60674 -4.29719,-6.57185 -4.74676,-10.40275 -0.82369,-5.94443 -0.34169,-11.84447 -0.0213,-17.79103 0.33714,-6.47411 1.01497,-12.99967 0.0809,-19.45673 -0.74071,-5.92858 1.52712,-12.06105 5.76034,-16.24201 4.84104,-4.96478 11.25754,-7.86952 17.35846,-10.94667 3.99683,-2.00052 8.09479,-3.99903 11.43912,-7.01665 0.99698,-0.95764 1.86712,-2.07596 3.12921,-2.70104 5.52795,-3.56549 9.52876,-9.28516 11.25959,-15.60778 2.32363,-7.95342 2.23731,-16.36205 1.6583,-24.55425 -0.85794,-10.76518 -2.81251,-21.40013 -4.13281,-32.11133 -21.60154,-15.33596 -45.2301,-27.50365 -68.56022,-39.89174 -5.52038,-2.93006 -11.02072,-5.90598 -16.52315,-8.86385 -2.21137,-0.75553 -4.61644,-0.71584 -6.9264,-0.73464 z m 24.83398,32.98632 c 8.28453,4.66146 16.56854,9.32317 24.84571,13.99805 1.76726,0.48414 3.50222,1.08659 5.18164,1.82031 0.2986,0.13916 0.98634,0.44514 1.422,0.6644 6.8271,3.32228 12.61214,8.90582 15.77331,15.84927 4.4338,9.45686 4.46183,20.6194 1.04045,30.39651 -3.75717,10.85333 -11.87909,20.35458 -22.51105,24.92835 -2.84943,1.26458 -5.88653,2.00803 -8.84659,2.94636 -5.86436,2.17461 -11.18727,6.44154 -13.65301,12.30013 -2.94922,6.55986 -3.32098,13.88811 -3.35431,20.97511 0.007,9.99969 1.07359,19.91517 0.71173,29.88772 -7.1e-4,1.78217 -0.38369,3.57028 0.013,5.33384 0.52178,4.23261 0.48866,8.56045 0.29089,12.74477 -0.3803,7.79664 -1.12083,15.57989 -1.17348,23.38956 0.0627,4.86959 0.1886,9.88958 1.99981,14.47823 0.76772,1.99114 2.13335,3.85077 4.16425,4.67607 2.5261,0.99364 5.36731,0.9258 7.99023,0.37109 36.3167,-24.57608 71.43676,-50.85554 106.74648,-76.84371 10.1187,-7.44154 20.22429,-14.90461 30.394,-22.27408 0.68241,-0.36774 1.52685,-0.95282 2.28087,-0.42533 22.25873,11.11347 44.50473,22.26163 66.75833,33.38882 -0.5965,17.17738 -1.4662,34.35261 -1.4766,51.54297 -0.1229,0.7431 -1.0043,1.03513 -1.4972,1.52313 -9.1374,7.50785 -19.0629,14.19106 -29.9363,18.92218 -0.7299,0.30956 -1.7806,0.75129 -2.5389,1.05152 -7.3261,2.905 -15.3113,4.7526 -23.217,3.75903 -5.0031,-0.66882 -10.03412,-2.49536 -13.6844,-6.09348 -5.58686,-4.80785 -12.66244,-8.25706 -20.13535,-8.37553 -8.00603,-0.22644 -15.76346,2.50966 -22.82116,6.07474 -9.69186,4.86272 -18.43541,11.33377 -27.23214,17.61497 -12.01305,4.36339 -23.02113,11.83067 -30.95133,21.91247 -3.89174,5.06183 -6.9342,11.04774 -7.43376,17.49626 -0.37528,5.55378 1.43803,11.15499 4.78453,15.57861 1.22634,1.83173 2.75845,3.50206 4.74105,4.52191 18.77206,11.53767 36.46309,24.94504 56.06654,35.1763 5.95608,3.08276 12.07212,5.89494 18.39844,8.125 1.29736,0.27886 2.46244,-0.53195 3.67889,-0.84799 12.5508,-4.46543 23.92432,-11.5244 35.90654,-17.23804 1.4418,-0.6919 2.88435,-1.38238 4.33645,-2.05264 13.0174,5.68827 26.1165,11.18115 39.0529,16.94026 4.6412,2.05774 9.2595,4.16782 13.8533,6.32927 0.405,10.07594 1.0012,20.14406 1.2891,30.22461 0.1626,6.13622 0.2192,12.39669 0.01,18.57815 -0.051,1.77332 -0.1372,3.37544 -0.2328,5.16599 -1.0602,1.51609 -2.668,2.55092 -4.3992,3.14158 -21.2705,9.79244 -42.2231,20.34943 -64.08513,28.80373 -29.22683,-19.78673 -57.7962,-40.519 -86.60547,-60.90234 -5.54737,-2.34362 -10.64956,-5.87212 -15.28516,-9.53711 -6.7977,-5.39735 -13.17951,-11.29563 -19.95504,-16.71744 -4.3096,-3.34386 -8.76631,-6.61678 -13.78714,-8.81772 -3.99418,-1.74118 -8.698,-2.59212 -12.85743,-0.91406 -1.1525,0.28022 -2.36996,1.03041 -2.5039,2.31836 -2.43167,32.60295 -1.25485,65.31868 -1.12428,97.97454 0.0676,4.00069 -0.37208,8.21152 1.36557,11.95347 2.00849,4.81966 6.2244,8.24099 10.51814,10.97564 5.25339,3.31611 10.95671,5.81933 16.51258,8.57138 7.26139,3.52477 14.52512,7.4141 20.29789,13.16096 0.34512,0.45857 1.08272,0.75535 1.17579,1.31782 -0.39765,12.70224 -0.7953,25.40449 -1.19296,38.10674 -6.55748,6.63296 -14.77105,11.28443 -23.07453,15.3707 -7.24197,3.61655 -14.58456,7.07188 -21.48239,11.32679 -9.01585,4.64474 -17.75256,9.83065 -26.94503,14.13063 -13.46082,-3.33406 -25.71574,-10.10574 -37.58954,-17.07235 -7.85076,-4.55098 -15.61631,-9.30096 -23.81458,-13.20386 -5.40329,-1.09645 -10.53002,-4.65035 -12.57895,-9.89642 -2.21413,-5.1485 -1.87172,-10.88583 -1.67192,-16.35624 0.0499,-1.34628 0.22703,-2.95781 -0.0421,-4.38432 -1.61099,-5.79601 -1.43359,-12.36204 1.70068,-17.6321 3.16681,-5.43818 8.50635,-9.1388 13.92954,-12.0836 4.32285,-2.36658 8.72956,-4.59179 13.04229,-6.9674 5.73727,-1.50761 11.42582,-4.31547 15.04827,-9.16226 3.77183,-5.10246 5.09431,-11.52472 5.56559,-17.73413 0.65615,-9.19688 -0.18966,-18.40476 -0.47019,-27.59912 -0.0696,-2.38777 -0.119,-4.96004 -0.0797,-7.42062 -0.0305,-2.29673 0.40444,-4.63184 -0.21265,-6.887 -0.75274,-4.34504 -0.76462,-8.78666 -0.57288,-13.18261 0.0653,-1.18936 0.14224,-2.62521 0.24785,-3.90922 0.49174,-7.18931 1.36153,-14.35136 1.67518,-21.55206 0.12138,-4.33903 0.13863,-8.73292 -0.73163,-13.00356 -0.62139,-2.8556 -1.75952,-5.89201 -4.26758,-7.60547 -1.84624,-1.24672 -4.1622,-1.7868 -6.34176,-1.74254 -32.697,20.97101 -63.63771,44.49586 -95.05667,67.29723 -13.46856,9.7616 -27.08596,19.45118 -40.95054,28.69657 -1.71936,1.14912 -3.44057,2.29402 -5.16079,3.4421 -23.19747,-9.31519 -45.51392,-20.62008 -68.20508,-31.06836 -0.11328,-12.95005 -0.66416,-25.90619 -0.11523,-38.85352 0.0695,-1.1894 0.12147,-2.62592 0.21054,-3.91307 0.23603,-3.70675 0.55749,-7.41324 1.03555,-11.09474 0.20321,-1.35034 1.0816,-2.50066 2.28973,-3.1164 1.87958,-1.01702 3.90896,-1.72057 5.81844,-2.67966 8.95485,-4.03929 17.90956,-8.0789 26.86449,-12.118 5.30176,-4.34643 12.68197,-6.16542 19.34674,-4.3804 5.53546,1.29978 10.56805,4.13637 15.27354,7.24396 2.7989,2.23365 5.60926,4.51976 8.88822,6.02266 5.89357,2.9024 12.71723,3.72537 19.16337,2.54542 8.53669,-1.47409 16.41837,-5.40585 23.72152,-9.93152 4.28118,-2.63577 8.31448,-5.64164 12.46125,-8.47659 4.62857,-2.91057 9.39617,-5.59275 14.07434,-8.42344 7.40883,-4.46771 14.7956,-9.16703 20.97475,-15.28113 4.31174,-4.31454 7.92017,-9.61097 9.11413,-15.68114 1.00859,-5.02042 0.4924,-10.29074 -1.0999,-15.13196 -0.72176,-1.51092 -2.01929,-2.62765 -3.0618,-3.90957 -7.8242,-8.58498 -17.73232,-14.86256 -27.61161,-20.80223 -6.04536,-3.6327 -12.22018,-7.1473 -18.16252,-10.86047 -3.29839,-2.07823 -6.70949,-4.33052 -9.91412,-6.67701 -2.07652,-1.36619 -3.71093,-3.25255 -5.5937,-4.85229 -4.31464,-3.56666 -9.9119,-5.73244 -15.55203,-5.3572 -7.30654,0.32061 -14.1354,3.33439 -20.55193,6.61646 -7.84635,4.11076 -15.31989,8.88192 -23.05033,13.19973 -17.50586,-8.17057 -35.01172,-16.34115 -52.51758,-24.51172 -0.23577,-2.19001 -0.43784,-4.34052 -0.61555,-6.58109 -0.35232,-4.34984 -0.59357,-8.63063 -0.76859,-13.01428 -0.4935,-12.35787 -0.46019,-24.80047 -0.73566,-37.19979 0.0646,-0.76709 1.0769,-0.71654 1.56315,-1.09723 21.42952,-10.38976 42.09391,-22.4563 64.36548,-31.03561 0.63315,-0.18691 1.30004,-0.63462 1.91248,-0.66136 28.27756,20.77189 56.88675,41.08273 85.43346,61.47999 2.5459,2.01131 5.64981,3.08902 8.3522,4.85213 2.28263,1.38355 4.46236,2.92953 6.59069,4.53849 0.70402,0.53865 1.63381,1.25814 2.40955,1.88401 6.59478,5.32356 12.84812,11.05949 19.51878,16.29014 4.21465,3.20011 8.61837,6.30725 13.60877,8.17351 3.76763,1.40782 8.11901,1.74673 11.83985,0.008 0.90657,-0.38953 1.7505,-0.9037 2.61523,-1.375 1.73672,-31.77665 0.49311,-63.60351 0.23958,-95.4 0.0303,-3.90191 0.0363,-7.97151 -1.68294,-11.57266 -2.42262,-5.328 -7.10757,-9.16199 -11.89868,-12.29958 -9.76144,-6.36377 -20.79388,-10.57922 -30.21069,-17.5012 -0.8589,-0.62591 -1.90515,-1.4297 -2.8058,-2.16727 -0.94366,-0.77084 -1.70876,-1.43904 -2.60631,-2.23898 -0.42403,-0.64778 -0.0378,-1.45375 -0.16173,-2.17578 0.005,-13.3418 0.0102,-26.68359 0.0153,-40.02539 25.24102,-13.77022 50.25819,-27.93528 75.29101,-42.07813 8.2194,4.61654 16.4388,9.23308 24.6582,13.84961 z" />
  </g>
</svg>
